<svg id="Layer_2" data-name="Layer 2" xmlns="http://www.w3.org/2000/svg" xmlns:xlink="http://www.w3.org/1999/xlink" viewBox="0 0 172.65 80.85">
  <defs>
    <style>
      .cls-logo-1 {
        fill: url(#linear-gradient-12);
      }

      .cls-logo-1, .cls-logo-2, .cls-logo-3, .cls-logo-4, .cls-logo-5, .cls-logo-6, .cls-logo-7, .cls-logo-8, .cls-logo-9, .cls-logo-10, .cls-logo-11, .cls-logo-12, .cls-logo-13, .cls-logo-14, .cls-logo-15 {
        stroke-width: 0px;
      }

      .cls-logo-16 {
        clip-path: url(#clippath-11);
      }

      .cls-logo-2 {
        fill: url(#linear-gradient);
      }

      .cls-logo-3 {
        fill: url(#linear-gradient-6);
      }

      .cls-logo-17 {
        clip-path: url(#clippath-2);
      }

      .cls-logo-18 {
        clip-path: url(#clippath-13);
      }

      .cls-logo-19 {
        clip-path: url(#clippath-6);
      }

      .cls-logo-4 {
        fill: url(#linear-gradient-11);
      }

      .cls-logo-5 {
        fill: url(#linear-gradient-5);
      }

      .cls-logo-6 {
        fill: none;
      }

      .cls-logo-20 {
        clip-path: url(#clippath-7);
      }

      .cls-logo-21 {
        clip-path: url(#clippath-1);
      }

      .cls-logo-22 {
        clip-path: url(#clippath-4);
      }

      .cls-logo-7 {
        fill: url(#linear-gradient-13);
      }

      .cls-logo-23 {
        clip-path: url(#clippath-12);
      }

      .cls-logo-8 {
        fill: url(#linear-gradient-14);
      }

      .cls-logo-9 {
        fill: url(#linear-gradient-2);
      }

      .cls-logo-10 {
        fill: url(#linear-gradient-7);
      }

      .cls-logo-11 {
        fill: url(#linear-gradient-3);
      }

      .cls-logo-24 {
        clip-path: url(#clippath-9);
      }

      .cls-logo-25 {
        clip-path: url(#clippath);
      }

      .cls-logo-12 {
        fill: url(#linear-gradient-9);
      }

      .cls-logo-26 {
        clip-path: url(#clippath-3);
      }

      .cls-logo-13 {
        fill: url(#linear-gradient-8);
      }

      .cls-logo-27 {
        clip-path: url(#clippath-8);
      }

      .cls-logo-28 {
        clip-path: url(#clippath-5);
      }

      .cls-logo-14 {
        fill: url(#linear-gradient-10);
      }

      .cls-logo-29 {
        clip-path: url(#clippath-10);
      }

      .cls-logo-15 {
        fill: url(#linear-gradient-4);
      }
    </style>
    <clipPath id="clippath">
      <path class="cls-logo-6" d="M64.36,34.03v.61l4.25.56v30.99l-4.25.56v.61h25.38l1.92-6.59h-.4l-.24.6c-.82,2.05-2.57,3.6-4.71,4.1-4.88,1.13-9.2,1.19-13.95,1.19v-31.46l4.25-.56v-.61h-12.25Z"></path>
    </clipPath>
    <linearGradient id="linear-gradient" x1="-21.74" y1="2.31" x2="185.88" y2="103.01" gradientTransform="translate(58.69 -40.31) rotate(45)" gradientUnits="userSpaceOnUse">
      <stop offset="0" stop-color="#f4c226"></stop>
      <stop offset="0" stop-color="#f4c226"></stop>
      <stop offset=".04" stop-color="#f5c93d"></stop>
      <stop offset=".25" stop-color="#fff4c5"></stop>
      <stop offset=".26" stop-color="#fdf1c1"></stop>
      <stop offset=".6" stop-color="#bc8b2e"></stop>
      <stop offset=".68" stop-color="#c69b42"></stop>
      <stop offset=".84" stop-color="#e1c575"></stop>
      <stop offset=".87" stop-color="#e7cf81"></stop>
      <stop offset=".91" stop-color="#ecd891"></stop>
      <stop offset=".99" stop-color="#fcf0be"></stop>
      <stop offset="1" stop-color="#fff4c5"></stop>
    </linearGradient>
    <clipPath id="clippath-1">
      <path class="cls-logo-6" d="M91.23,43.98v.61l4.25.56v21.03l-4.25.56v.61h12.25v-.61l-4.25-.56v-19.86c0-1.4-.93-2.34-2.34-2.34h-5.66Z"></path>
    </clipPath>
    <linearGradient id="linear-gradient-2" x1="-20.01" y1="-1.26" x2="187.61" y2="99.44" gradientTransform="translate(67.88 -52.54) rotate(45)" xlink:href="#linear-gradient"></linearGradient>
    <clipPath id="clippath-2">
      <path class="cls-logo-6" d="M105.35,33.19v.61l4.25.56v31.83l-4.25.56v.61h12.25v-.61l-4.25-.56v-30.66c0-1.4-.93-2.34-2.34-2.34h-5.66Z"></path>
    </clipPath>
    <linearGradient id="linear-gradient-3" x1="-15.2" y1="-11.17" x2="192.41" y2="89.53" gradientTransform="translate(68.2 -64.1) rotate(45)" xlink:href="#linear-gradient"></linearGradient>
    <clipPath id="clippath-3">
      <path class="cls-logo-6" d="M123.58,59.54c0-6.03,6.68-9.77,11.22-9.77s4.58,2.43,4.58,6.82v4.3c-2.1,2.34-6.03,4.16-9.07,4.16-3.69,0-6.73-1.36-6.73-5.52M123.39,44.58v3.88s2.64-3.43,2.64-3.43c1.68-1.5,2.93-2.03,5.4-2.03,4.01,0,6.71,1.5,6.78,3.83.04,1.36-1.16,2.38-2.52,2.27-5.32-.41-15.88,2.98-15.85,10.61.02,4.49,3.96,7.74,8.44,7.47,5.3-.32,9.39-3.66,10.78-4.99.19-.18.39-.36.6-.52.67-.5,1.55-1.29,2.31-2.48.63-.98.96-1.91,1.15-2.6.82-3.02-.03-5.79-1.86-7.17-.62-.46-1.44-.73-2.53-.73.84-.28,1.87-.84,1.87-1.87,0-2.66-3.65-4.49-9.16-4.49-3.27,0-5.89.79-8.04,2.24"></path>
    </clipPath>
    <linearGradient id="linear-gradient-4" x1="-13.14" y1="-15.43" x2="194.48" y2="85.26" gradientTransform="translate(77.44 -77.17) rotate(45)" xlink:href="#linear-gradient"></linearGradient>
    <clipPath id="clippath-4">
      <path class="cls-logo-6" d="M154.1,44.58c-4.21,2.06-6.78,5.89-6.78,10.61,0,7.76,6.45,12.01,13.6,12.01,4.95,0,9.02-2.15,11.22-6.64h-3.74c-1.68,3.41-4.3,5.89-8.04,5.94-.98-.09-1.96-.23-2.94-.56-4.67-1.64-6.36-6.17-6.36-10.75s1.68-9.11,6.36-10.75c1.17-.37,2.29-.51,3.51-.61,5.52,0,8.55,3.69,9.72,7.9l-1.12,3.93h.61l2.52-6.36c-2.38-3.83-6.17-6.12-11.78-6.12-2.29,0-4.67.33-6.78,1.4"></path>
    </clipPath>
    <linearGradient id="linear-gradient-5" x1="-7.9" y1="-26.24" x2="199.72" y2="74.46" gradientTransform="translate(85.88 -96.96) rotate(45)" xlink:href="#linear-gradient"></linearGradient>
    <clipPath id="clippath-5">
      <path class="cls-logo-6" d="M98.14,35.57c-.24,1.93-2.09,3.3-4.13,3.05-.76-.09-1.44-.4-1.98-.84.39,1.36,1.6,2.44,3.16,2.63,2.04.25,3.89-1.11,4.13-3.05.15-1.21-.37-2.36-1.28-3.11.12.42.16.87.11,1.33"></path>
    </clipPath>
    <linearGradient id="linear-gradient-6" x1="-13.16" y1="-15.38" x2="194.46" y2="85.31" gradientTransform="translate(54.52 -56.74) rotate(45)" xlink:href="#linear-gradient"></linearGradient>
    <clipPath id="clippath-6">
      <path class="cls-logo-6" d="M65.5,75.72h2.7c.95,0,1.74.72,1.74,1.67s-.79,1.62-1.74,1.62h-2.7v-3.3ZM65.5,71.43h2.38c.97,0,1.75.67,1.75,1.62s-.79,1.67-1.75,1.67h-2.38v-3.3ZM64.49,70.4v9.65h3.84c1.46,0,2.64-1.05,2.64-2.54,0-1.17-.71-2.01-1.72-2.35.85-.39,1.42-1.16,1.42-2.19,0-1.51-1.19-2.57-2.67-2.57h-3.51Z"></path>
    </clipPath>
    <linearGradient id="linear-gradient-7" x1="-33.33" y1="26.21" x2="174.29" y2="126.9" gradientTransform="translate(73.02 -25.86) rotate(45)" xlink:href="#linear-gradient"></linearGradient>
    <clipPath id="clippath-7">
      <polygon class="cls-logo-6" points="73.35 70.4 73.35 80.04 78.63 80.04 78.63 79.05 74.38 79.05 74.38 75.72 78.08 75.72 78.08 74.72 74.38 74.72 74.38 71.39 78.63 71.39 78.63 70.4 73.35 70.4"></polygon>
    </clipPath>
    <linearGradient id="linear-gradient-8" x1="-31.76" y1="22.96" x2="175.86" y2="123.66" gradientTransform="translate(75.45 -31.7) rotate(45)" xlink:href="#linear-gradient"></linearGradient>
    <clipPath id="clippath-8">
      <path class="cls-logo-6" d="M84.05,71.62l1.8,5.19h-3.62l1.82-5.19ZM83.47,70.4l-3.49,9.65h1.13l.79-2.25h4.29l.79,2.25h1.13l-3.49-9.65h-1.14Z"></path>
    </clipPath>
    <linearGradient id="linear-gradient-9" x1="-30.22" y1="19.8" x2="177.39" y2="120.5" gradientTransform="translate(77.8 -37.39) rotate(45)" xlink:href="#linear-gradient"></linearGradient>
    <clipPath id="clippath-9">
      <path class="cls-logo-6" d="M95.82,70.4v6.32c0,1.4-1.11,2.43-2.6,2.43s-2.59-1.03-2.59-2.43v-6.32h-1.03v6.48c0,1.9,1.53,3.3,3.62,3.3s3.63-1.4,3.63-3.3v-6.48h-1.03Z"></path>
    </clipPath>
    <linearGradient id="linear-gradient-10" x1="-28.5" y1="16.25" x2="179.12" y2="116.94" gradientTransform="translate(80.54 -43.87) rotate(45)" xlink:href="#linear-gradient"></linearGradient>
    <clipPath id="clippath-10">
      <polygon class="cls-logo-6" points="98.51 70.4 98.51 71.43 101.18 71.43 101.18 80.04 102.2 80.04 102.2 71.43 104.87 71.43 104.87 70.4 98.51 70.4"></polygon>
    </clipPath>
    <linearGradient id="linear-gradient-11" x1="-26.86" y1="12.87" x2="180.76" y2="113.57" gradientTransform="translate(82.97 -49.87) rotate(45)" xlink:href="#linear-gradient"></linearGradient>
    <clipPath id="clippath-11">
      <polygon class="cls-logo-6" points="111.91 70.4 109.31 74.4 106.7 70.4 105.42 70.4 108.79 75.48 108.79 80.04 109.82 80.04 109.82 75.46 113.18 70.4 111.91 70.4"></polygon>
    </clipPath>
    <linearGradient id="linear-gradient-12" x1="-25.41" y1="9.88" x2="182.2" y2="110.58" gradientTransform="translate(85.2 -55.25) rotate(45)" xlink:href="#linear-gradient"></linearGradient>
    <clipPath id="clippath-12">
      <path class="cls-logo-6" d="M27.48,4.45c-3.37-1.18-6.83-1.95-10.24-2.3,1.23-.14,2.47-.26,3.73-.32,5.81-.3,11.04.44,15.57,2.19,2.6,1.01,5.04,2.38,7.25,4.07,1.95,1.49,3.59,3.13,4.86,4.89,1.63,2.25,2.78,4.79,3.82,7.6-7.13-6.35-15.52-12.82-24.99-16.12M20.88.07C14.94.37,7.74,3.27,3.35,4.4c6.68-1.53,16.21-.83,23.55,1.72,10.33,3.6,19.42,11.16,26.94,18.08l2.36,2.69-.93-3.62c-1.19-4.5-2.81-8.04-5.2-11.33-1.37-1.89-3.13-3.66-5.22-5.25-2.35-1.79-4.93-3.24-7.69-4.31C33.1.79,28.48,0,23.44,0,22.6,0,21.74.02,20.88.07"></path>
    </clipPath>
    <linearGradient id="linear-gradient-13" x1="-16.3" y1="-8.91" x2="191.32" y2="91.79" gradientTransform="translate(18.23 -17.12) rotate(45)" xlink:href="#linear-gradient"></linearGradient>
    <clipPath id="clippath-13">
      <path class="cls-logo-6" d="M44.01,34.85c-.63-.95-1.89-1.79-3.51-2.39,2.25-2.26,4.18-4.83,5.87-7.21,2.09,2.49,4.23,5.89,5.91,10.45.01.04.02.08.04.11-3.94,9.07-12.38,15.46-22.66,17.1-9.79,1.57-20.16-2.09-26.66-9.35,3.43-2.77,6.46-4.84,10.87-6.85.78.36,1.58.68,2.41.96,1.81.62,3.65,1.01,5.49,1.22-.02.98-.1,1.95-.33,2.9l.43.1c.23-.97.32-1.97.34-2.97,1.34.13,2.68.18,3.99.1l-.11,3.04.44.02.11-3.1c1.19-.09,2.35-.29,3.49-.56.13,1.11.25,2.24.33,3.43l.44-.03c-.09-1.21-.21-2.36-.34-3.49,1.05-.27,2.06-.61,3.03-1.03.69.94,1.27,2.03,1.71,3.21l.41-.15c-.44-1.19-1.03-2.29-1.72-3.25.48-.22.97-.44,1.43-.7.83-.47,1.62-1.03,2.38-1.61.93.79,1.64,1.84,2.01,3l.42-.13c-.38-1.21-1.12-2.31-2.08-3.14.69-.55,1.35-1.12,1.99-1.73,1.63.58,2.88,1.38,3.49,2.29l.37-.24ZM16.85,36.01c-5.88-2.01-10.67-6.39-14.27-10.19.55-.46,1.1-.93,1.65-1.41,1.85-1.59,3.77-3.24,5.88-4.48,6.84-4.02,14.84-5.24,21.96-3.36,2.49.66,4.87,1.57,7.09,2.7,1.05.52,3.4,1.89,6.01,4.63-2.78,3.91-6.19,8.49-10.6,10.99-2.85,1.62-6.27,2.44-9.83,2.44-2.6,0-5.28-.44-7.88-1.32M9.21,18.41c-2.25,1.32-4.22,3.02-6.13,4.66-.78.67-1.55,1.33-2.34,1.98l-.73.59.64.69c2.92,3.14,6.67,6.8,11.25,9.36-4.21,2.05-7.21,4.2-10.72,7.08l-.69.57.57.68c5.83,6.96,14.9,11.01,24.07,11.01,1.61,0,3.22-.13,4.81-.38,10.22-1.64,18.72-7.71,23.18-16.41,3.47,11.65,2.19,25.6-3.63,38.76-.54,1.23-1.21,2.58-2.04,3.85l3.22-2.19c.15-.32.3-.64.43-.95,6.43-14.55,7.46-30.09,2.82-42.63-4.26-11.53-11.2-16-13.98-17.39-2.32-1.19-4.82-2.14-7.43-2.84-2.33-.62-4.76-.92-7.2-.92-5.49,0-11.09,1.52-16.1,4.47"></path>
    </clipPath>
    <linearGradient id="linear-gradient-14" x1="-29.73" y1="18.77" x2="177.89" y2="119.47" gradientTransform="translate(42.09 -6.83) rotate(45)" xlink:href="#linear-gradient"></linearGradient>
  </defs>
  <g id="Layer_1-2" data-name="Layer 1">
    <g>
      <g class="cls-logo-25">
        <rect class="cls-logo-2" x="56.58" y="29.26" width="42.86" height="42.86" transform="translate(-13 70.01) rotate(-45)"></rect>
      </g>
      <g class="cls-logo-21">
        <rect class="cls-logo-9" x="84.77" y="43.08" width="25.18" height="25.18" transform="translate(-10.85 85.15) rotate(-45)"></rect>
      </g>
      <g class="cls-logo-17">
        <rect class="cls-logo-11" x="95.06" y="33.86" width="32.82" height="32.82" transform="translate(-2.9 93.55) rotate(-45)"></rect>
      </g>
      <g class="cls-logo-26">
        <rect class="cls-logo-15" x="114.46" y="37.49" width="34.82" height="34.82" transform="translate(-.19 109.33) rotate(-45)"></rect>
      </g>
      <g class="cls-logo-22">
        <rect class="cls-logo-5" x="142.53" y="37.74" width="34.9" height="34.9" transform="translate(7.84 129.29) rotate(-45)"></rect>
      </g>
      <g class="cls-logo-28">
        <rect class="cls-logo-3" x="90.85" y="32.54" width="9.8" height="9.8" transform="translate(1.57 78.67) rotate(-45)"></rect>
      </g>
      <g class="cls-logo-19">
        <rect class="cls-logo-10" x="62.02" y="69.52" width="11.4" height="11.4" transform="translate(-33.35 69.92) rotate(-45)"></rect>
      </g>
      <g class="cls-logo-20">
        <rect class="cls-logo-13" x="70.72" y="69.94" width="10.55" height="10.55" transform="translate(-30.93 75.77) rotate(-45)"></rect>
      </g>
      <g class="cls-logo-27">
        <rect class="cls-logo-12" x="77.76" y="68.94" width="12.56" height="12.56" transform="translate(-28.57 81.46) rotate(-45)"></rect>
      </g>
      <g class="cls-logo-24">
        <rect class="cls-logo-14" x="87.21" y="69.26" width="12.04" height="12.04" transform="translate(-25.93 87.97) rotate(-45)"></rect>
      </g>
      <g class="cls-logo-29">
        <rect class="cls-logo-4" x="96.03" y="69.56" width="11.32" height="11.32" transform="translate(-23.4 93.94) rotate(-45)"></rect>
      </g>
      <g class="cls-logo-16">
        <rect class="cls-logo-1" x="103.14" y="69.06" width="12.31" height="12.31" transform="translate(-21.18 99.32) rotate(-45)"></rect>
      </g>
      <g class="cls-logo-23">
        <rect class="cls-logo-7" x="1.59" y="-14.75" width="56.39" height="56.39" transform="translate(-.78 25) rotate(-45)"></rect>
      </g>
      <g class="cls-logo-18">
        <rect class="cls-logo-8" x="-15.08" y="3.03" width="88.73" height="88.73" transform="translate(-24.94 34.59) rotate(-45)"></rect>
      </g>
    </g>
  </g>
</svg>